<?xml version="1.0" encoding="UTF-8" standalone="no"?>
<!-- Created with Inkscape (http://www.inkscape.org/) -->

<svg
   width="200mm"
   height="100mm"
   viewBox="0 0 200 100"
   version="1.1"
   id="svg5"
   inkscapeVersion="1.1.2 (0a00cf5339, 2022-02-04)"
   sodipodiDocname="elipse.svg"
   xmlnsInkscape="http://www.inkscape.org/namespaces/inkscape"
   xmlnsSodipodi="http://sodipodi.sourceforge.net/DTD/sodipodi-0.dtd"
   xmlns="http://www.w3.org/2000/svg"
   xmlnsSvg="http://www.w3.org/2000/svg">
  <sodipodiNamedview
     id="namedview7"
     pagecolor="#ffffff"
     bordercolor="#999999"
     borderopacity="1"
     inkscapePageshadow="0"
     inkscapePageopacity="0"
     inkscapePagecheckerboard="0"
     inkscapeDocument-units="mm"
     showgrid="false"
     inkscapeZoom="0.69664703"
     inkscapeCx="396.90114"
     inkscapeCy="216.75252"
     inkscapeWindow-width="1920"
     inkscapeWindow-height="1043"
     inkscapeWindow-x="0"
     inkscapeWindow-y="0"
     inkscapeWindow-maximized="1"
     inkscapeCurrent-layer="layer1" />
  <defs
     id="defs2" />
  <g
     inkscapeLabel="Layer 1"
     inkscapeGroupmode="layer"
     id="layer1">
    <path
       style="fill:none;stroke-linecap:butt;stroke-linejoin:miter"
       d="m 83.011998,94.220412 c -7.482181,1.933864 -15.110094,1.495444 -22.802561,1.495444 -2.139468,0 -4.87304,0.475652 -6.950551,0 -0.67908,-0.155477 -1.251712,-0.652878 -1.934583,-0.790744 -0.0426,-0.0086 -3.819652,0.0083 -3.901805,0 -4.967555,-0.503764 -9.971529,-0.394632 -14.990048,-0.394632 -1.881113,0 -7.987799,-0.576342 -9.597252,0 -0.600845,0.215159 -1.02572,0.808527 -1.636384,0.993995 -1.843588,0.55993 -6.957173,0 -8.677435,0 -0.494525,0 -1.091065,0.300818 -1.483576,0 -0.146798,-0.112506 0.102213,-0.400714 0,-0.554858 -0.06778,-0.102211 -0.281902,0.08741 -0.367926,0 C 10.426033,94.72184 10.079208,93.815917 9.9102861,93.471208 9.5207335,92.676267 8.3302784,91.962591 8.0202105,91.185017 7.5986798,90.127922 8.2104896,89.273445 7.6329973,88.125884 5.4254955,83.739253 7.8812413,89.853846 6.8659885,85.839693 6.8301467,85.69798 6.1433564,84.346917 6.1004634,84.304192 c -0.088645,-0.08829 -0.3366526,0.118983 -0.3753445,0 -0.3583395,-1.101929 0.2358223,-0.970524 0,-1.913814 0.2315586,-0.688281 -0.6169194,-0.705797 -0.7595909,-1.139385 -0.1890914,-0.574659 0.1934741,-1.340803 0,-1.913814 -0.3050532,-0.90347 -0.5375154,-1.748012 -0.7670086,-2.665984 -0.1790584,-0.716235 0.1226481,-1.565782 0,-2.295093 -0.2813412,-1.672955 -0.4468077,-3.343751 -0.7670088,-4.944756 -0.9037242,-4.518623 0.8963636,-9.576604 0,-14.096939 C 2.5548609,50.91349 3.0517152,45.873868 3.0517152,41.281979 c 0,-2.700835 -0.5885115,-10.504612 0,-12.564403 0.1253985,-0.438894 0.5910887,-0.715169 0.759591,-1.139386 0.3087804,-0.77738 -0.2655226,-1.890189 0,-2.686756 0.4066093,-1.219828 1.043496,-3.452218 1.9063949,-4.582766 0.014758,-0.01934 1.5502418,-1.523115 1.5755572,-1.574074 0.2343687,-0.471769 0.2134071,-1.034207 0.3797956,-1.534017 0.3253615,-0.977346 1.3303887,-2.211817 1.9182633,-3.102157 0.4717618,-0.714485 1.3745618,-0.811894 1.9286488,-1.547369 0.172334,-0.228751 0.158437,-0.594707 0.387213,-0.767009 0.321914,-0.242449 0.82322,-0.145011 1.14532,-0.387213 0.226255,-0.170131 0.152676,-0.590617 0.379796,-0.759591 0.32747,-0.243632 0.796572,-0.204679 1.16164,-0.387213 0.0098,-0.0049 0.752502,-0.7573069 0.767008,-0.7670089 1.165126,-0.7792628 2.570296,-1.0311821 3.848396,-1.541435 1.581099,-0.6312191 3.065771,-1.5327206 4.570897,-2.2921245 2.527569,-1.2752737 5.499876,-1.4844213 8.153731,-2.3781721 1.214689,-0.4090755 0.353825,-0.5020654 1.898978,-0.7595908 2.398932,-0.3998222 5.164011,0 7.609261,0 1.74249,0 5.62057,-0.5280261 7.230948,0 0.458362,0.1502924 0.763963,0.6245594 1.222465,0.7744265 0.889738,0.2908226 2.114391,0.1562859 3.053199,0.3872135 1.406443,0.3459554 2.423094,0.5621223 3.846912,0.765525 2.630612,-1.5960071 0.7058,0.6169192 1.139386,0.7595907 0.365464,0.1202555 0.784013,-0.1047419 1.154224,0 1.356116,0.3836818 3.458717,1.4184736 4.637656,2.2936081 0.290044,0.2153025 0.434131,0.6252617 0.767008,0.765525 2.382068,1.003723 1.27802,0.077003 3.115509,0.3872135 2.923825,0.4936079 0.137594,0.079644 1.532535,0.7744264 2.308701,1.1499026 5.57603,2.0162396 8.103291,2.3559186 0.869807,0.116907 2.906098,-0.181223 3.483435,0.396114 0.19689,0.196889 0.173702,0.551144 0.369411,0.749206 0.348351,0.352538 2.260182,0.244344 2.649665,0.379796 1.189122,0.413541 2.200137,1.219478 3.490854,1.584458 1.916546,0.541949 3.557394,0.03115 5.472911,0.387214 0.692058,0.128644 1.267751,0.643871 1.953869,0.801131 2.664547,0.610719 8.767026,0 11.878996,0 2.86789,0 9.5671,0.574795 11.8775,0 0.54942,-0.136687 0.9748,-0.604054 1.51918,-0.759591 1.20377,-0.343933 2.98678,0.152456 4.20001,0 2.0924,-0.262935 4.0564,-1.235439 6.16277,-1.534017 0.38044,-0.05393 0.78814,0.121298 1.15274,0 0.81828,-0.272234 1.48375,-0.904465 2.29806,-1.188345 1.75542,-0.61196 3.65619,-0.882619 5.38093,-1.532533 5.03225,-1.8962483 10.27995,-4.1958841 15.57309,-5.0871817 1.88953,-0.3181721 3.46463,-1.6071551 5.36016,-1.9271649 1.12527,-0.1899711 2.35787,-0.1609582 3.48047,-0.3872132 1.10525,-0.2227567 1.92381,-0.6034008 3.07545,-0.7670086 1.2032,-0.1709317 3.45863,0.5560296 4.562,0 1.08969,-0.5491379 2.04768,-0.3797954 3.41816,-0.3797954 0.25319,0 0.5772,-0.1756211 0.75959,0 0.17562,0.169104 -0.11097,0.514318 0,0.7314028 0.11569,0.2263318 0.53468,-0.1126183 0.76256,0 1.12915,0.5580367 -0.57595,0.2592954 0.75959,1.1542221 0.21486,0.1439746 0.55378,-0.1324875 0.77591,0 1.52615,0.910274 0.67996,1.0978919 1.92123,1.9123289 0.48854,0.3205456 1.12898,0.3941228 1.57259,0.7744267 0.85939,0.7367545 4.42506,4.9000123 5.09756,5.9120493 1.58357,2.383086 -1.15892,-1.298541 0.7596,1.898977 0.51161,0.85269 1.27992,1.276907 1.90639,1.906395 0.71617,0.719619 0.69533,1.156415 1.15274,1.919747 1.12471,1.876943 3.00657,3.706178 3.81872,5.731053 0.0943,0.234999 -0.0983,0.526257 0,0.759591 1.0052,2.385906 2.4635,4.550602 3.31579,7.041051 0.68562,2.003425 0.28014,4.210873 0.77443,6.204312 0.13999,0.564576 0.6261,1.003425 0.76552,1.568141 0.32276,1.307279 -0.17084,2.864437 0,4.205938 0.2367,1.858563 0.56555,3.654068 0.81152,5.511482 0.12408,0.93693 0.24853,3.324638 0,4.17775 -0.25508,0.875604 -1.74548,3.481932 -1.92865,4.610955 -0.22385,1.379812 0.0586,3.32782 -0.37979,4.642106 -1.31379,3.938836 -0.36329,-2.832087 -1.14681,1.927167 -0.45067,2.737469 -2.00299,5.288142 -2.68675,8.023177 -0.0614,0.245637 0.11323,0.533125 0,0.75959 -0.16014,0.320273 -0.62661,0.427127 -0.75959,0.759592 -0.14106,0.352631 0.14162,0.786982 0,1.139386 -0.13457,0.334843 -0.58011,0.45593 -0.76553,0.765524 -0.83718,1.397839 -1.12203,3.443467 -2.29954,4.64656 -2.03928,2.083577 -6.26807,5.828429 -8.92371,6.959454 -0.48819,0.207915 -1.08259,0.121121 -1.54588,0.379794 -0.53824,0.300511 -0.8288,0.944536 -1.36638,1.246206 -0.48243,0.270719 -1.10966,0.175471 -1.60523,0.421335 -1.31651,0.653159 -2.35858,1.778037 -3.66591,2.449383 -2.80174,1.438759 -5.97099,2.190462 -8.76942,3.588769 -0.41262,0.206174 -0.71438,0.622001 -1.15274,0.765527 -0.37551,0.122943 -0.80497,-0.106842 -1.18538,0 -0.54507,0.153085 -0.96976,0.622903 -1.51918,0.759589 -0.49621,0.123449 -1.02728,-0.06849 -1.53401,0 -2.49377,0.337058 -4.95267,1.400831 -7.47871,1.593361 -2.95841,0.225483 -6.05669,0 -9.02607,0 -2.465,0 -10.81433,0.577426 -12.98871,0 -0.72856,-0.193477 -1.27179,-0.872765 -2.00579,-1.044438 -1.9156,-0.448032 -3.31735,0.298654 -5.19994,-0.413917 -3.1335,-1.186055 -6.43129,-2.048435 -9.58241,-3.235679 -4.73173,-1.782765 -9.14653,-3.966713 -14.126611,-5.050091 -7.561472,-1.644947 0.464896,0.250758 -4.339458,-0.393147 -2.323401,-0.311397 -4.558945,-1.335657 -6.91198,-1.57556 -4.001685,-0.40799 -8.286575,0 -12.310711,0 -9.478565,0 -18.957131,0 -28.435696,0 -3.806362,0 -7.612721,0 -11.419083,0 -1.852007,0 -4.378082,0.37623 -6.202831,0 -1.763027,-0.363503 -8.853045,-2.691831 -9.969629,-3.7846 -0.467471,-0.457501 -0.668836,-1.1514 -1.16164,-1.581494 -0.437897,-0.382172 -1.074546,-0.461878 -1.554787,-0.78926 C 12.134041,79.118657 9.391438,75.449381 7.8555336,71.658193 7.2881531,70.257685 6.995493,68.758794 6.4728409,67.340987 5.0507074,63.483137 4.8753609,64.720422 3.7549301,60.221306 2.2847534,54.317778 2.4033927,48.0853 2.4033927,42.054922 c 0,-3.300957 0,-6.601912 0,-9.90287 0,-1.277358 -0.3108619,-2.59312 0,-3.832074 0.5017582,-1.999783 2.7300261,-6.29261 3.7935032,-8.046915 0.1908635,-1.125242 1.349893,-1.456481 1.898977,-2.278773 0.3162474,-0.473603 0.4110439,-1.082076 0.7670085,-1.526599 0.887626,-1.108454 8.9120076,-3.068674 10.1684286,-3.450797 2.948047,-0.89661 6.112769,-2.558158 9.167013,-3.1318288 1.153827,-0.2167199 2.348008,0 3.522009,0 1.275381,0 2.609686,-0.3831812 3.826142,0 0.608722,0.1917458 1.049806,0.7425298 1.636384,0.9939958 1.187104,0.508911 2.466962,0.768442 3.68372,1.201696 8.261961,2.941864 -2.459442,-0.864169 4.403251,1.191312 0.756987,0.226728 4.731597,1.991358 4.992233,2.088874 0.508722,0.190336 1.102151,0.152425 1.574075,0.421336 0.479483,0.273218 0.69573,0.903974 1.188344,1.152738 0.40155,0.202779 5.49334,1.91859 6.01145,2.044368 2.72756,0.662149 5.507537,0.520667 8.250163,0.814483 2.349058,0.251653 5.811811,1.119425 7.956418,2.00431 1.204753,0.497094 2.18763,1.517298 3.450796,1.838151 1.821833,0.462759 3.748614,0.287126 5.619784,0.465843 3.887092,0.371257 7.563789,0.550406 11.457657,0.550406"
       id="path234" />
  </g>
</svg>
