<svg
   width="200mm"
   height="100mm"
   viewBox="0 0 200 100"
   version="1.1"
   id="svg5"
   inkscapeversion="1.1.2 (0a00cf5339, 2022-02-04)"
   sodipodidocname="elipse.svg"
   xmlnsinkscape="http://www.inkscape.org/namespaces/inkscape"
   xmlnssodipodi="http://sodipodi.sourceforge.net/DTD/sodipodi-0.dtd"
   xmlns="http://www.w3.org/2000/svg"
   xmlnssvg="http://www.w3.org/2000/svg">
  <sodipodiNamedview
     id="namedview7"
     pagecolor="#ffffff"
     bordercolor="#999999"
     borderopacity="1"
     inkscapepageshadow="0"
     inkscapepageopacity="0"
     inkscapepagecheckerboard="0"
     inkscapedocument-units="mm"
     showgrid="false"
     inkscapezoom="0.69664703"
     inkscapecx="396.90114"
     inkscapecy="216.75252"
     inkscapewindow-width="1920"
     inkscapewindow-height="1043"
     inkscapewindow-x="0"
     inkscapewindow-y="0"
     inkscapewindow-maximized="1"
     inkscapecurrent-layer="layer1" />
  <defs
     id="defs2" />
  <g
     inkscapelabel="Layer 1"
     inkscapegroupmode="layer"
     id="layer1">
    <path
       style="fill:none;stroke-linecap:butt;stroke-linejoin:miter"
       d="m 195.61985,48.587106 c -0.44161,0.541505 -0.98693,1.012905 -1.32484,1.624516 -0.73339,1.327449 -1.37403,13.014094 -0.81151,14.625089 0.20792,0.595479 0.7325,1.040307 0.97026,1.624515 0.31154,0.765517 0.25115,1.848163 0.38721,2.664503 0.19918,1.195072 0.90874,2.264944 1.13939,3.418157 0.4524,2.262039 0.38573,4.633471 0.38573,6.955004 0,0.575593 0.14713,5.893877 0,6.076725 -0.3584,0.445402 -1.12958,0.362956 -1.53402,0.767009 -0.18052,0.18035 0.0779,0.522536 0,0.765527 -0.35198,1.097774 -0.26455,-0.113763 -0.74179,0.363476 -0.0895,0.08952 0.10523,0.309415 0,0.379794 -0.68127,0.455649 -1.67271,0.289771 -2.33367,0.774427 -0.23162,0.458814 -0.33239,0.857062 -0.767,1.146805 -1.83126,1.22084 -3.94404,1.562732 -5.95211,2.335146 -2.91102,1.119743 -5.47306,3.685146 -8.65518,4.13621 -2.46329,0.349171 -5.31808,0 -7.79174,0 -3.53829,0 -7.55337,0.427263 -11.0467,0 -1.76891,-0.216352 -3.47751,-0.786312 -5.23109,-1.103781 -2.55212,-0.462031 -6.07733,-0.0831 -8.07956,-0.525184 -0.56019,-0.12369 -0.98121,-0.641938 -1.54143,-0.765524 -2.66799,-0.588579 -6.1041,-0.125032 -8.83173,-0.387216 -6.33666,-0.609089 2.05619,-0.422817 -5.76517,-0.422817 -6.90852,0 -13.81704,0 -20.72556,0 -2.68785,0 -5.82596,-0.465108 -8.469729,0 -0.999019,0.175752 -1.898399,0.754497 -2.897426,0.930201 -3.050272,0.536472 -6.423559,-0.253685 -9.515654,0 -4.52342,0.371115 -9.010021,1.266084 -13.528726,1.698694 -1.984446,0.189986 -3.848234,-3.2e-5 -5.747374,0.379796 -2.656723,0.531344 -6.209236,0 -8.849529,0 -6.454542,0 -12.909087,0 -19.363629,0 -4.436882,0 -8.873762,0 -13.310643,0 -2.003273,0 -4.160466,-0.245166 -6.139036,0 -0.399164,0.04946 -0.747129,0.323038 -1.14532,0.379796 -1.046516,0.149169 -11.9702988,0.284107 -12.6237466,0 C 5.0613124,96.116141 5.6572686,95.805661 5.4669766,95.425076 5.3869087,95.26494 5.2137796,95.171878 5.0871813,95.04528 4.8315117,94.663013 4.4918285,94.325127 4.3201727,93.898475 4.0743266,93.287428 4.103779,92.646192 3.9403771,91.9995 3.7355324,91.188788 2.9900467,90.52017 2.7876389,89.707375 c -0.2043593,-0.820629 0.1382916,-1.827228 0,-2.658568 -0.2510682,-1.509294 -0.6749562,-2.802263 -1.1468041,-4.217805 -0.2533725,-0.760118 -0.2881539,-3.854084 0,-4.557545 0.2026311,-0.494676 0.8133351,-0.759267 0.9850943,-1.265492 0.3182301,-0.937916 0,-2.906458 0,-3.944826 0,-1.535658 0.088297,-2.728516 0.3857295,-4.19852 0.2712702,-1.340699 -0.2280628,-2.840463 0,-4.189618 0.5651847,-3.343466 0.8382387,-6.868716 1.5265996,-10.26041 0.2746475,-1.353243 1.1241352,-2.582555 1.5340173,-3.820207 0.3033088,-0.91585 0.5466443,-3.14179 0.7595907,-4.214839 C 7.572394,42.647981 5.2096296,36.209115 3.748996,32.761803 3.3362542,31.787671 2.5865741,30.980988 2.1704713,30.008287 1.5870138,28.644371 1.3691993,27.191896 1.0236673,25.809767 0.761674,24.761794 0.14554552,23.816462 -0.11571891,22.771404 c -0.32935081,-1.317403 0,-3.193606 0,-4.557544 0,-0.762064 -0.33442033,-1.601425 0,-2.286191 0.17686254,-0.362147 0.79051115,-0.390639 0.93465274,-0.767008 0.70254727,-1.834429 -0.31888674,-1.157518 0,-2.433065 C 1.0645739,11.745036 2.1598442,10.522791 2.7179108,9.6758809 4.1651975,7.4795101 7.6610894,6.1907639 9.1833339,4.7667288 9.6793284,4.302734 11.97762,4.8787674 12.469454,4.3869334 c 0.08952,-0.089519 -0.112545,-0.3218241 0,-0.3797953 0.407664,-0.2099839 13.662718,-0.2263061 14.258646,0 0.604636,0.2296128 1.016701,0.8478475 1.630449,1.0518552 1.228503,0.4083487 3.705892,0 4.978882,0 4.947523,0 10.115441,-0.4777501 15.03159,0 5.701085,0.5540301 -1.509056,0.5030806 6.542569,0.8886619 3.751408,0.1796497 7.604696,0 11.370125,0 1.450533,0 3.948297,0.3669466 5.407633,0 0.557009,-0.140059 0.988105,-0.6137452 1.539952,-0.7729429 1.689801,-0.4874792 5.878459,0 7.678986,0 1.663139,0 2.960589,-0.2392198 4.56348,-0.3797956 3.864041,-0.338881 7.839128,0.3924022 11.697994,0 3.55103,-0.3610978 7.09194,-1.3388591 10.65949,-1.6200646 1.72894,-0.1362803 3.47592,0.1591275 5.2029,0 5.45637,-0.5027597 10.96595,-0.3931476 16.47511,-0.3931476 2.29348,0 8.14689,-0.5308333 10.01414,0 0.34443,0.097916 0.41989,0.6463578 0.75959,0.7595907 1.60628,0.5354259 4.17864,-0.1611479 5.84232,0 0.66556,0.064468 1.29745,0.3409741 1.96129,0.4213357 2.56414,0.3104081 16.61004,0.047828 18.09517,0.8174501 1.02495,0.5311473 3.20668,1.4247423 4.38693,1.6556706 0.76002,0.1487043 1.55261,-0.076175 2.32328,0 2.04138,0.2017729 0.92849,0.4402897 2.70605,0.7670086 2.89993,0.5330161 5.88503,0.3595444 8.75161,0.7670088 2.34523,0.3333591 5.26794,-0.5616585 7.20127,0.7314028 1.21899,0.8152865 1.38796,2.1419652 2.33515,3.0665512 0.20258,0.197737 0.63388,0.126158 0.7596,0.379795 0.17063,0.344278 -0.17105,0.808661 0,1.152739 0.12729,0.256066 0.60675,0.149374 0.76552,0.387213 0.14057,0.210589 -0.0801,0.519387 0,0.759591 0.0566,0.169849 0.32318,0.209945 0.3798,0.379795 0.22739,0.682178 -0.17342,1.579006 0,2.278772 0.0706,0.285032 0.66033,1.222409 0.75959,1.50583 0.25504,0.72828 0.27877,11.932301 0,12.494675 -0.45539,0.918642 -1.33337,2.769497 -1.53996,3.802404 -0.17123,0.856155 -0.10128,1.8337 -0.37979,2.658568 -0.0584,0.172942 -0.25814,0.258143 -0.38721,0.387212 -0.1266,0.253199 -0.31114,0.48496 -0.3798,0.759593 -0.94297,3.771878 -2.60712,7.456408 -3.85581,11.171324 -0.20646,0.61422 -0.0967,1.704774 -0.3798,2.274322 -0.0557,0.112037 -0.31992,-0.112168 -0.37534,0 -0.19763,0.39993 -0.0595,8.64604 0,8.735295 0.14045,0.210672 0.58229,-0.180761 0.75959,0 0.18076,0.18429 -0.0807,0.529217 0,0.774425 0.19472,0.591775 0.55932,1.30012 0.75514,1.894527 0.43621,1.324166 -0.22991,3.122116 0,4.508588 0.10589,0.638587 1.01618,10.272384 0.38721,11.215833 -0.19862,0.297934 -0.59945,0.439316 -0.75959,0.759589 -0.22253,0.445064 -0.13915,1.40521 -0.38573,1.894525 -0.1262,0.250431 -0.62842,0.127426 -0.75069,0.379797 -0.11126,0.229642 0,0.510349 0,0.765524 -0.2532,0.1266 -0.58956,0.153461 -0.75959,0.379796 -0.41389,0.550958 -0.35372,1.36834 -0.76701,1.919748 -2.00464,2.674572 -4.80644,4.304215 -7.76949,5.772592 -2.41585,1.19721 -4.64494,1.243237 -7.2532,1.53847 -3.24867,0.36772 -6.24597,0.827833 -9.53049,0.827833 -0.71162,0 -1.67166,0.540229 -2.13486,0 -0.86891,-1.013386 -0.22316,-0.723209 -0.75366,-1.508797 -0.46395,-0.231976 -0.86228,-0.329102 -1.15422,-0.767008 -1.38983,-2.084742 0.43598,0.521348 -0.3798,-1.534018 -0.31451,-0.792432 -0.82857,-1.495239 -1.1468,-2.28619 -0.26823,-0.666686 -0.74214,-5.588545 -0.3798,-6.076725 0.20699,-0.27886 0.67157,-0.243869 0.92279,-0.483645 0.53799,-0.51348 0.6222,-1.386668 1.1468,-1.913813 1.993,-2.002645 -0.58116,1.656471 1.53254,-1.15274 0.17219,-0.228856 0.15758,-0.595841 0.38721,-0.767008 0.32399,-0.241507 0.82712,-0.138491 1.15125,-0.379796 0.22938,-0.17076 0.1316,-0.637339 0.38722,-0.765525 0.3395,-0.170246 0.77938,0.121013 1.13938,0 0.87379,-0.293719 1.45153,-1.176067 2.30103,-1.534017 1.35585,-0.571309 3.1801,-1.179443 4.6792,-1.179443 1.38077,0 9.46648,-0.505108 10.24409,0 0.5194,0.337386 0.77427,0.996349 1.29368,1.333735 0.61257,0.39791 2.04777,0.140311 2.53691,0.768493 0.2816,0.361646 0.44429,4.402238 0.24924,4.889865 -0.13298,0.332465 -0.64708,0.41965 -0.75959,0.759592 -0.2006,0.6061 0.20424,1.310413 0,1.915295 -0.48436,1.434534 -5.41458,5.922944 -7.22056,6.825933 -0.77641,0.388202 -3.35736,0.379796 -4.44925,0.379796 -0.59091,0 -2.4297,0.348062 -2.9538,0 -0.60913,-0.40454 -0.91284,-1.20954 -1.56813,-1.534017 -1.18374,-0.586145 -0.40442,0.75493 -1.52809,-0.379796 -0.0894,-0.09031 0.0902,-0.291762 0,-0.381281 -0.0541,-1.045358 -0.84842,-0.109384 -1.1468,-0.379793 -0.085,-0.07704 0.10432,-0.296453 0,-0.344192 -0.8359,-0.382502 -1.50053,0.108144 -2.08739,-0.49403 -0.11901,-0.122107 -0.67004,-2.719824 -0.3798,-3.292054 0.26062,-0.387212 0.52123,-0.774427 0.78185,-1.16164 0.25764,-0.129071 0.60278,-0.154643 0.77294,-0.387212 0.62259,-0.850953 0.51534,-2.202072 1.13938,-3.112543 0.45662,-0.666194 0.74974,-0.06217 1.29368,-0.336772 0.82168,0.107045 0.14797,-0.609563 0.38722,-0.767008 0.83166,-0.547317 2.25015,-0.81965 3.06803,-1.146805 0.58772,-0.235088 0.90478,-0.987123 1.51918,-1.139386 0.63662,-0.157768 5.4911,-1.257591 5.99958,-0.755139 1.98379,1.960266 3.04282,3.498852 3.04282,6.060405 0,0.171098 0.14532,1.776029 0,1.848536 -0.32082,0.16007 -0.82331,-0.254747 -1.07559,0 -0.20185,0.203811 -0.18452,0.565533 -0.38722,0.768492 -0.70167,0.702575 -0.84253,0.164082 -1.50583,0.387213 -1.10117,0.370432 -1.7643,1.303007 -2.66598,1.904913 -0.23835,0.159104 -3.11906,0.126293 -3.24458,0 -0.24833,-0.249839 -0.1027,-0.761175 -0.3709,-0.989545 -0.15174,-0.129204 -0.45696,0.14092 -0.59788,0 -0.76428,-0.76428 0.89356,0.210249 0,-0.64684 -0.0874,-0.08387 -0.27763,0.0855 -0.36348,0 -0.18004,-0.179308 0.17503,-0.884502 0,-1.069657 -0.22183,-0.234667 -0.71211,-0.653741 -0.71211,-1.074111 0,-0.817933 -0.0661,0.04358 0.86196,-0.422817 0.25447,-0.127894 0.2363,-0.901777 0.71805,-1.172025 0.31821,-0.178509 0.81786,-0.746313 0.96284,-0.814483 0.30565,-0.143724 0.79725,0.259641 1.01328,0 0.081,-0.09732 -0.11323,-0.32318 0,-0.379796 0.22615,-0.113072 1.07232,0 1.42127,0 0.0574,0 0.72111,-0.02532 0.72843,0 0.60228,2.08226 -0.57982,2.336631 -2.09926,2.336631"
       id="path278" />
  </g>
</svg>
