<?xml version="1.0" encoding="UTF-8" standalone="no"?>
<!-- Created with Inkscape (http://www.inkscape.org/) -->

<svg
   width="200mm"
   height="100mm"
   viewBox="0 0 200 100"
   version="1.1"
   id="svg5"
   inkscapeVersion="1.1.2 (0a00cf5339, 2022-02-04)"
   sodipodiDocname="elipse.svg"
   xmlnsInkscape="http://www.inkscape.org/namespaces/inkscape"
   xmlnsSodipodi="http://sodipodi.sourceforge.net/DTD/sodipodi-0.dtd"
   xmlns="http://www.w3.org/2000/svg"
   xmlnsSvg="http://www.w3.org/2000/svg">
  <sodipodiNamedview
     id="namedview7"
     pagecolor="#ffffff"
     bordercolor="#999999"
     borderopacity="1"
     inkscapePageshadow="0"
     inkscapePageopacity="0"
     inkscapePagecheckerboard="0"
     inkscapeDocument-units="mm"
     showgrid="false"
     inkscapeZoom="0.69664703"
     inkscapeCx="396.90114"
     inkscapeCy="216.75252"
     inkscapeWindow-width="1920"
     inkscapeWindow-height="1043"
     inkscapeWindow-x="0"
     inkscapeWindow-y="0"
     inkscapeWindow-maximized="1"
     inkscapeCurrent-layer="layer1" />
  <defs
     id="defs2" />
  <g
     inkscapeLabel="Layer 1"
     inkscapeGroupmode="layer"
     id="layer1">
    <path
       style="fill:none;stroke-linecap:butt;stroke-linejoin:miter"
       d="M 102.3964,3.849879 C 87.066386,3.1044589 70.978402,3.4700837 55.3804,3.4700837 c -4.098131,0 -8.196263,0 -12.294394,0 -1.599173,0 -4.149913,-0.4072142 -5.711766,0 -0.871845,0.2273114 -1.620177,0.8200956 -2.492407,1.0459209 -3.095453,0.80143 -6.806004,-0.7862546 -9.905835,0 -1.620906,0.4111334 -2.863051,1.4909675 -4.214839,2.2995424 -2.179607,1.3037375 -4.726112,1.9586133 -6.607846,3.881034 -0.954729,0.975371 -1.265453,1.640278 -1.913813,2.720878 -1.037542,1.729237 -3.0184579,2.896675 -3.9314758,4.73409 -0.2341991,0.471318 -0.1415772,1.063235 -0.3797953,1.532534 -0.1725216,0.339874 -0.6093261,0.483605 -0.8085489,0.808549 -1.0152303,1.655897 -1.3388515,4.356382 -1.9123292,6.063375 -0.8417608,2.505553 0.6549853,5.785746 0,8.355499 -0.6291329,2.468322 0.1135213,5.127839 -0.3872132,7.631512 -0.2038678,1.019339 -0.6227432,1.947315 -0.7595907,3.051714 -0.1864373,1.504609 0.1731851,3.078102 0,4.584251 -0.5718636,4.973354 -0.4109506,10.042953 -0.4109506,15.08648 0,1.661605 -0.5959687,4.594442 0,6.104917 0.1913072,0.484864 0.7239402,0.77339 0.9465215,1.244719 0.4296129,0.90973 0.2145932,2.436936 0.3797953,3.440411 0.2261145,1.373471 0.9280157,3.786254 1.5310501,5.007068 0.1599766,0.323865 0.6048822,0.442732 0.7670088,0.765527 0.2364867,0.470844 0.1508482,1.061627 0.3872132,1.532532 0.1621996,0.323149 0.6329479,0.43121 0.7670086,0.767009 0.8050612,2.016546 -0.7710266,0.379235 0.3797953,1.928648 0.6413542,0.863492 1.8497979,1.664856 2.7075259,2.292125 1.746684,1.277377 5.461774,2.12117 7.495025,2.734231 2.115626,0.637897 4.294541,1.647709 6.477291,2.051785 3.084676,0.571043 9.577157,0 12.975354,0 8.105307,0 -0.765855,-0.16329 6.996544,0.46436 2.844641,0.23001 5.815462,0 8.670015,0 1.48767,0 3.508467,0.341765 4.977397,0 1.064162,-0.247592 2.047311,-0.803682 3.122927,-0.995481 0.807191,-0.143934 1.641814,0.05677 2.459768,0 2.409087,-0.167199 4.75389,-0.543976 7.113746,-0.808549 3.263294,-0.365857 7.088174,0 10.298983,0 9.03646,0 18.072915,0 27.109375,0 4.51522,0 10.5568,-0.597969 14.82686,0 1.38732,0.194276 2.67348,0.87104 4.05461,1.105266 1.7328,0.293862 3.52295,-0.166056 5.27263,0 2.69907,0.256156 5.34248,1.060635 8.06472,1.277358 5.31489,0.423127 10.83839,0 16.17988,0 2.01173,0 12.81149,0.518924 14.1088,0 0.33247,-0.132985 0.43932,-0.599456 0.75959,-0.75959 0.82845,-0.414224 1.84364,-0.215837 2.7461,-0.424304 1.26172,-0.291452 2.35844,-0.878941 3.44635,-1.532533 2.61646,-1.571916 3.67906,-5.190114 5.74589,-7.288808 2.25715,-2.291958 2.28302,-2.276554 3.53833,-5.222187 0.31506,-0.739317 0.36072,-1.591932 0.76552,-2.28619 0.33628,-0.57675 0.94216,-0.983388 1.21356,-1.593361 2.059,-4.62748 0.29498,-15.09744 0.76701,-20.465928 0.03,-0.341561 0.71815,-3.650842 0.78036,-4.014555 1.91347,-11.186707 -0.53255,3.454771 0.42579,-4.784531 0.14255,-1.225542 0.35691,-2.47182 0.85157,-3.602122 0.71763,-1.639795 0.94399,-0.585949 1.18983,-2.320314 0.26943,-1.900759 0.38782,-9.737101 0,-11.163906 -0.62192,-2.288092 -2.11485,-4.262032 -2.86033,-6.512898 -0.51045,-1.54121 -1.8954,-8.043512 -2.7639,-9.121024 -0.29162,-0.361793 -0.87004,-0.409948 -1.16016,-0.772943 -0.25512,-0.319204 -0.20532,-0.797214 -0.38721,-1.163123 -0.23977,-0.48231 -0.75757,-0.454134 -1.13939,-0.759591 -4.10519,-3.2841515 -8.5334,-5.3186338 -13.65038,-6.6197149 -2.08487,-0.5301149 -4.19858,-1.3864622 -6.36157,-1.6052291 -1.73239,-0.1752146 -3.4888,0.1485679 -5.22367,0 -0.85946,-0.073601 -1.6864,-0.3902754 -2.54582,-0.4643592 -3.56639,-0.3074303 -7.30767,0 -10.88648,0 -2.24811,0 -4.51638,-0.3004069 -6.74433,0 -8.66855,1.1688278 -0.97883,1.1534267 -9.12103,1.5666561 -5.14582,0.2611583 -10.26243,0.4756145 -15.37281,0.9376198 -3.37673,0.3052742 -8.15271,0.4009684 -11.5081,0 -0.61623,-0.073639 -1.20715,-0.3545747 -1.82776,-0.3545747 -1.35325,0 -2.692752,0.2853944 -4.04423,0.3545747 -10.297316,0.5271061 -20.777936,0 -31.085361,0 -3.07575,0 -5.606923,0.2222641 -8.619575,0.4643591 -3.93251,0.3160141 -7.752763,-0.2566868 -11.635687,0.8441547 -2.977404,0.8441201 -7.90812,2.321234 -10.536354,3.7727332 -0.799414,0.4414935 -1.381961,1.2052143 -2.154153,1.6927603 -3.488499,2.202569 -1.487781,0.499551 -4.938823,2.071071 -3.021316,1.375835 -5.634484,3.435953 -8.392587,5.266694 -3.065324,2.034665 -6.87189,3.254963 -9.161081,6.328934 -0.478854,0.643016 -3.5188806,5.673354 -3.6570138,6.048538 -0.5684199,1.543897 -0.3701401,3.287271 -0.8426709,4.863161 -0.9865243,3.290059 -1.5651644,6.557089 -2.0117289,9.997818 -0.5021522,3.869026 -1.5946572,9.58995 -0.8604739,13.389271 0.1729946,0.895229 0.875526,1.630469 1.0518552,2.525046 0.1812287,0.919435 -0.074224,1.877195 0,2.811375 0.1977943,2.489425 1.0671532,4.926346 1.6200646,7.336282 0.1796931,0.783217 0.2630877,1.58545 0.3946314,2.378173 0.1285764,0.923279 0.1778328,1.861127 0.3857297,2.769836 0.5521661,2.4135 2.0531857,3.506046 2.9003906,5.693962 0.104902,0.270913 0.509126,2.287207 0.767009,2.673406 1.121729,1.679869 2.719492,2.998533 4.253411,4.275664 0.626293,0.521449 0.870674,1.429422 1.532534,1.904913 0.587433,0.422021 1.371731,0.484396 1.998376,0.845637 0.589214,0.339662 1.015977,0.92783 1.620065,1.240269 0.466303,0.241175 1.035917,0.200572 1.5266,0.387212 1.338028,0.508945 2.605198,1.129763 3.965597,1.581494 1.317127,0.437359 3.174545,0.27871 4.523422,0.379794 3.506595,0.262786 7.043447,0.312377 10.491848,0.80855 2.910221,0.418735 6.01653,-0.243509 8.945962,0 4.381942,0.36425 8.719574,0.394632 13.137063,0.394632 1.967343,0 4.718537,0.396631 6.674609,0 0.679863,-0.137859 1.248783,-0.643991 1.928648,-0.781847 2.017586,-0.409106 4.617948,0 6.674607,0 4.046699,0 8.0934,0 12.140099,0 8.452922,0 16.905837,0 25.358757,0 3.17881,0 6.35762,0 9.53643,0 1.08411,0 2.359,0.211834 3.41816,0 1.94917,-0.389834 0.40926,-0.461698 2.72236,-1.154221 1.98946,-0.59563 4.28071,-0.282831 6.2147,-0.789262 0.55785,-0.146079 0.98599,-0.618675 1.53253,-0.802614 1.85521,-0.624371 4.00993,-0.732959 5.92095,-1.169059 0.93235,-0.212762 1.80658,-0.672017 2.75352,-0.805582 0.50143,-0.07072 1.03902,0.160885 1.51918,0 0.34218,-0.114649 0.42253,-0.653364 0.76552,-0.765524 0.49918,-0.163229 1.05544,0.07276 1.57556,0 1.02502,-0.143391 1.70596,-0.903536 2.65857,-1.139386 1.79404,-0.444172 4.24029,-0.822891 5.8898,-1.970188 0.46265,-0.321794 0.75479,-0.856194 1.2284,-1.16164 0.34236,-0.2208 0.84256,-0.12651 1.16164,-0.379796 0.35879,-0.284821 0.4355,-0.82155 0.75959,-1.14532 0.20418,-0.203981 0.57084,-0.182645 0.77443,-0.387213 1.25664,-1.262694 1.958,-3.264095 3.1155,-4.649528 0.69615,-0.833226 1.69607,-1.40435 2.29955,-2.30696 0.22529,-0.336968 0.15066,-0.823576 0.38721,-1.152737 1.73418,-1.734182 1.41745,-1.270354 2.79951,-3.20749 1.80143,-2.524954 2.46928,-5.688672 4.24747,-8.168569 0.33785,-0.47117 0.90191,-0.753224 1.22544,-1.234337 0.68727,-1.022022 0.53923,-2.329714 0.75959,-3.431511 0.23146,-1.157303 0.96869,-2.207275 1.1468,-3.440411 0.40559,-2.808036 1.16889,-5.677953 1.57408,-8.514241 0.21078,-1.475462 -0.28976,-3.097467 0,-4.557543 0.2493,-1.256229 0.81433,-2.901027 0.37979,-4.19852 -0.49941,-1.491178 -1.42054,-3.005563 -2.11409,-4.410673 -0.7826,-1.585499 -1.05364,-3.269771 -2.00877,-4.771178 -0.40649,-0.547439 -0.81299,-1.09488 -1.2195,-1.642319 -0.38226,-0.255669 -0.86052,-0.407088 -1.1468,-0.767009 -0.25407,-0.319436 -0.14317,-0.834474 -0.38721,-1.161639 -0.17111,-0.229392 -0.59498,-0.157025 -0.76701,-0.385729 -1.1364,-1.510816 0.4691,-0.842519 -1.15274,-1.913813 -0.48902,-0.32302 -1.12615,-0.404177 -1.57556,-0.780361 -0.79634,-0.666594 -1.19005,-1.728486 -1.97167,-2.412294 -2.83594,-2.481067 -6.32706,-5.220962 -9.69368,-6.941651 -6.62069,-3.38385 -14.30287,-4.015132 -21.53856,-4.4937512 -10.41299,-0.6887887 -20.8662,-0.4658426 -31.32125,-0.4658426 -6.10095,0 -12.201912,0 -18.30287,0 -1.930133,0 -3.871019,-0.2034572 -5.790396,0 -1.908921,0.2023486 -3.723571,0.9874178 -5.630169,1.2105978 -4.314804,0.505075 -8.580623,-0.481071 -12.877438,0.464359 -3.349683,0.737032 -2.125482,0.978883 -5.536705,2.615544 -0.813596,0.390353 -1.735873,0.51443 -2.557685,0.887179 -5.526778,2.506778 -1.320807,1.09675 -7.009894,4.102086 -1.402739,0.741016 -2.959706,1.164991 -4.354296,1.921231 -3.804896,2.063268 -7.940651,4.882776 -11.582275,7.210178 -4.685861,2.994784 -8.132125,3.724719 -12.439784,7.8496 -0.974416,0.933071 -2.185998,1.685091 -2.884071,2.839563 -0.131012,0.216668 0.08007,0.519388 0,0.75959 -0.05662,0.169852 -0.253197,0.253198 -0.379795,0.379796 -0.129072,0.253199 -0.309713,0.486164 -0.387214,0.759593 -0.691705,2.440365 -2.01457,12.946244 -1.188344,15.047907 0.466444,1.186489 1.808242,2.354167 2.361853,3.487888 1.930126,3.952639 -1.414745,-0.909421 1.195762,3.191171 2.023217,3.178075 4.315293,6.185797 6.274041,9.435542 1.344792,2.231133 2.71042,6.024324 5.06196,7.432714 0.347078,0.20787 0.790049,0.200552 1.152739,0.379794 2.586845,1.278443 4.968497,3.3372 7.459419,4.778597 5.563714,3.219506 12.042926,5.33069 18.167869,7.045502 0.826352,0.281879 1.652704,0.563758 2.479056,0.845638 0.379793,0.253198 0.710745,0.602683 1.139385,0.759592 2.137199,0.782349 4.465162,0.889222 6.679057,1.416815 3.924335,0.935204 6.269564,1.351536 10.150626,1.351536"
       id="path52" />
  </g>
</svg>

 