<?xml version="1.0" encoding="UTF-8" standalone="no"?>
<!-- Created with Inkscape (http://www.inkscape.org/) -->

<svg
   width="200mm"
   height="100mm"
   viewBox="0 0 200 100"
   version="1.1"
   id="svg5"
   inkscapeversion="1.1.2 (0a00cf5339, 2022-02-04)"
   sodipodidocname="elipse.svg"
   xmlnsinkscape="http://www.inkscape.org/namespaces/inkscape"
   xmlnssodipodi="http://sodipodi.sourceforge.net/DTD/sodipodi-0.dtd"
   xmlns="http://www.w3.org/2000/svg"
   xmlnssvg="http://www.w3.org/2000/svg">
  <sodipodiNamedview
     id="namedview7"
     pagecolor="#ffffff"
     bordercolor="#999999"
     borderopacity="1"
     inkscapepageshadow="0"
     inkscapepageopacity="0"
     inkscapepagecheckerboard="0"
     inkscapedocument-units="mm"
     showgrid="false"
     inkscapezoom="0.69664703"
     inkscapecx="396.90114"
     inkscapecy="216.75252"
     inkscapewindow-width="1920"
     inkscapewindow-height="1043"
     inkscapewindow-x="0"
     inkscapewindow-y="0"
     inkscapewindow-maximized="1"
     inkscapecurrent-layer="layer1" />
  <defs
     id="defs2" />
  <g
     inkscapelabel="Layer 1"
     inkscapegroupmode="layer"
     id="layer1">
    <path
       style="fill:none;stroke-linecap:butt;stroke-linejoin:miter"
       d="M 18.961582,8.8035386 C 14.669288,9.3465543 14.33478,10.706071 12.220213,13.788353 11.056947,15.48398 9.1723286,16.708041 8.2471976,18.556565 7.5005228,20.048513 7.596793,22.018624 7.0944594,23.529511 5.7481871,27.578743 5.2372476,30.292063 4.7148038,34.51984 c -0.3399589,2.751053 -1.003826,6.502842 -0.3857297,9.245645 0.1268984,0.56311 0.6156801,0.99205 0.783328,1.544402 0.6021681,1.98397 0.8015994,4.26144 1.2506542,6.299264 0.2039509,0.925531 0.640969,1.797417 0.7744267,2.735712 0.015661,0.110101 -0.015171,2.94853 0,3.087322 0.1875041,1.715371 0.8993476,3.312734 1.139386,5.007068 0.1788126,1.262166 -0.024638,2.60504 0.3797954,3.824658 0.1227635,0.370207 0.6248982,0.750231 0.7462387,1.127516 0.7843299,2.438728 -1.3308306,-1.513075 0.3872132,1.906397 0.6015147,1.197211 1.3855787,2.515198 1.9063947,3.817239 0.464444,1.161108 0.683443,3.382068 1.534018,4.232643 0.202204,0.202205 0.594582,0.157969 0.765525,0.387212 1.505127,2.018459 0.05215,0.521486 0.387213,1.538468 0.07651,0.232219 1.422334,2.560037 1.532534,2.726814 0.958501,1.450605 2.735983,2.400694 3.915156,3.579868 0.20017,0.200168 0.15254,0.590796 0.379795,0.75959 1.302156,0.967171 3.434218,1.284819 4.722222,2.387073 0.511796,0.437989 0.724882,1.160553 1.237302,1.597811 2.007973,1.713442 7.026217,2.935108 9.545328,3.43893 0.870918,0.174183 1.781341,-0.09419 2.664499,0 2.88393,0.307559 5.733328,0.897072 8.592873,1.213564 4.697243,0.519885 9.733285,0 14.439643,0 8.564682,0 17.129366,0 25.694047,0 2.425081,0 7.788233,0.58339 9.972596,0 0.631846,-0.168751 1.074269,-0.800026 1.706112,-0.968774 0.160412,-0.04284 3.092886,0.03417 3.453766,0 0.97795,-0.09261 1.93673,-0.35347 2.91671,-0.421336 3.108,-0.215233 8.96944,-0.443958 11.92053,0 1.04509,0.157221 1.96326,0.827013 3.00276,1.017733 1.93426,0.35488 4.0441,-0.24733 5.99809,0 3.71382,0.47008 7.50594,-0.0208 11.23067,0.387212 6.00685,0.658003 12.18363,0.379796 18.23908,0.379796 1.8596,0 13.76603,0.471805 14.94555,0 3.75647,-1.502589 6.85499,-4.360132 10.46069,-6.174642 1.17164,-0.58961 2.54563,-0.990909 3.52943,-1.953871 0.58426,-0.571891 1.11257,-1.213225 1.53401,-1.91381 0.61429,-1.021168 0.37562,-2.070682 0.75959,-3.038364 0.13752,-0.34657 0.58574,-0.486095 0.77294,-0.808548 1.06503,-1.834521 1.64409,-4.071567 2.78764,-5.906117 1.87533,-3.008479 3.76943,-5.457864 4.34985,-8.960797 -0.13318,-0.772999 0.62678,-1.230283 0.75959,-1.898978 0.32128,-1.617684 0,-3.674052 0,-5.330486 0,-4.859205 0,-9.71841 0,-14.577616 0,-4.32314 0,-8.646279 0,-12.969419 0,-1.343208 0.33405,-3.296693 0,-4.591667 -0.14501,-0.562165 -0.66437,-0.984361 -0.79371,-1.550336 -0.36677,-1.604877 -0.0779,-3.040012 -0.76701,-4.645076 -0.48967,-1.140461 -1.41558,-2.048947 -1.97167,-3.158533 -0.50508,-1.007786 -0.87932,-2.644842 -1.57408,-3.502722 -0.29609,-0.365607 -0.88498,-0.407225 -1.18093,-0.772943 -0.64754,-0.800197 -0.0732,-1.228936 -0.75958,-1.915296 -1.78985,-1.7898453 -5.62093,-4.0603531 -8.11813,-4.6005688 -0.41796,-0.090417 -2.90956,0.070112 -3.49531,0 -2.12545,-0.2544111 -4.18213,-0.23134 -6.31261,-0.4228192 -5.75895,-0.5175909 -11.54189,-0.3872132 -17.34597,-0.3872132 -2.13321,0 -4.98016,-0.3850751 -7.0544,0 -1.09029,0.2024073 -2.05013,0.8890722 -3.13776,1.1052638 -1.42462,0.2831753 -15.21082,0.4053578 -16.71545,0 -0.71693,-0.193144 -1.2384,-0.8941208 -1.96426,-1.0503715 -3.17683,-0.6838551 -8.91083,0.3140749 -12.40714,0 C 106.01371,5.8226163 100.22184,5.4267277 94.350966,5.0678947 91.574682,4.8982058 87.879125,5.0806635 85.121643,4.6747472 82.228226,4.2488212 79.251468,3.6271557 76.307719,3.3929378 70.033067,2.8936984 63.693111,3.0131424 57.374324,3.0131424 c -2.734305,0 -8.44464,-0.5356043 -10.782628,0 -1.143765,0.2620227 -2.041711,1.2134604 -3.173368,1.5236322 -3.469343,0.950898 -1.254175,-0.4541602 -3.524977,0 C 37.10914,5.093617 41.759168,4.8298663 37.994375,5.2963653 33.031191,5.9113581 28.3132,6.2774869 23.92711,8.8421114 c -1.220976,0.7139262 -2.36063,1.6688826 -3.527943,2.3692706 -0.343289,0.205973 -0.807131,0.156462 -1.139387,0.379795 -1.408904,0.947027 -3.556386,2.836607 -4.299402,4.358746 -0.236132,0.483738 -0.170872,1.074584 -0.38573,1.56814 -0.148254,0.340558 -1.981323,2.722982 -2.004311,2.757967 -0.903628,1.375206 -1.707005,2.813737 -2.565102,4.217806 -1.2963567,2.121175 -3.1744115,5.071168 -4.2756655,7.196825 -1.1344397,2.189713 -1.8691204,10.951216 -1.188344,13.493123 0.3224331,1.20391 1.3851778,2.10411 1.7891923,3.283151 0.700382,2.043938 1.0877664,4.087172 2.0770059,6.069309 4.0397873,8.094514 -2.1633767,-5.380119 2.4938903,4.510072 0.219532,0.466195 1.456377,3.645619 1.663089,4.051644 1.215487,2.38747 3.194613,4.608898 4.458145,6.858571 0.775443,1.380649 0.629511,2.302925 1.56814,3.565033 1.573986,2.116428 3.615644,3.796839 5.542639,5.545606 0.734946,0.666969 1.249335,1.587243 2.079973,2.130414 0.749916,0.490384 1.710438,0.542557 2.536915,0.888661 2.099503,0.879219 3.95388,2.163578 6.143487,2.832148 3.342682,1.020646 6.854156,1.531289 10.17733,2.553234 2.362401,0.726485 4.611174,1.880278 7.017314,2.504276 3.894703,1.010034 8.032781,1.21942 11.936848,1.774357 2.803343,0.398476 5.988363,0 8.818375,0 6.927228,0 13.839301,-0.168881 20.730003,0.422817 2.037086,0.174924 1.211845,-0.218863 3.470085,0 2.680734,0.259813 5.325143,1.062929 8.014273,1.317416 3.61843,0.342432 7.33177,-0.273018 10.95621,0 3.78155,0.284853 7.55987,0.599924 11.35974,0.786294 5.22384,0.256215 10.53858,-0.436679 15.74816,0 0.70657,0.05923 1.37034,0.39179 2.07552,0.465844 3.90326,0.409909 8.08126,-0.167447 11.98581,0 0.79497,0.03409 9.35629,1.221015 10.7218,0.461391 0.72672,-0.404267 1.313,-1.060246 2.08442,-1.370822 0.77953,-0.313838 1.67529,-0.215858 2.47757,-0.465844 1.50434,-0.468744 3.76406,-1.509593 5.14949,-2.342565 0.31109,-0.187034 0.51036,-0.516284 0.76553,-0.774428 0.81943,-0.418367 1.61112,-0.89622 2.45829,-1.255104 0.81487,-0.345204 1.73687,-0.429392 2.51466,-0.851574 1.25567,-0.68158 2.27557,-2.350172 3.09325,-3.440412 2.5587,-3.411598 -1.50793,2.558071 1.97168,-1.557753 1.73526,-2.052547 -0.073,-0.946761 1.1468,-3.105126 0.28132,-0.497789 0.89611,-0.742899 1.19576,-1.229884 1.09445,-1.778693 1.39594,-5.911434 1.9598,-7.965318 0.45188,-1.645949 1.77377,-3.075582 2.01618,-4.762277 0.36004,-2.505044 -0.28062,-5.148676 0,-7.665636 0.21688,-1.945216 0.85388,-4.257294 0.38722,-6.229535 -0.22803,-0.963697 -0.80297,-1.814398 -1.10823,-2.756484 -1.06291,-3.280299 -1.15659,-6.826822 -2.44939,-10.064578 -2.59409,-6.496823 0.0504,0.9888 -2.58439,-4.695516 -0.38459,-0.829733 -0.52572,-1.75538 -0.87827,-2.599227 -0.72955,-1.746176 -1.84326,-3.317811 -2.54137,-5.076796 -0.20784,-0.523676 -0.16558,-1.127296 -0.38721,-1.645284 -1.55625,-3.637157 -6.51426,-9.123343 -9.7916,-11.295946 -3.04694,-2.019869 -8.79746,-3.281575 -12.33594,-4.032359 -2.84774,-0.6042258 -5.58977,-1.8060765 -8.48011,-2.118546 -2.96463,-0.3204996 -5.92613,-0.1585838 -8.91629,-0.4213354 -7.33767,-0.6447753 -14.67306,-0.8589905 -22.06523,-0.8589905 -7.29375,0 -14.5875,0 -21.88125,0 -3.016781,0 -6.645896,-0.5720265 -9.594288,0 -0.691417,0.1341438 -1.276069,0.6491912 -1.971672,0.7595907 -0.332611,0.052789 -4.714245,-0.045525 -5.241475,0 -2.133092,0.1841892 -4.265274,0.6522032 -6.394209,0.808549 -5.214324,0.3829314 -10.145078,0.6798109 -15.280831,1.8188642 -3.696422,0.819825 -7.423195,1.262902 -11.160942,1.623032 -0.654624,0.06307 -1.290709,0.253197 -1.936065,0.379795 -0.794208,0.140939 -1.579163,0.351528 -2.382623,0.422819 -0.791099,0.07019 -1.601504,-0.143588 -2.382623,0 -2.448695,0.450128 -5.181529,2.025627 -7.47277,2.915226 -1.985341,0.770829 -6.002554,1.428575 -7.659703,2.461252 -0.317035,0.197566 -0.430417,0.664429 -0.774425,0.810033 -0.349758,0.148036 -0.771176,-0.09309 -1.139386,0 -1.226405,0.310052 -2.444607,0.681913 -3.60509,1.185377 -1.038319,0.450463 -4.938824,2.387472 -4.938824,3.332111"
       id="path48" />
  </g>
</svg>
