<svg xmlns="http://www.w3.org/2000/svg" width="102" height="122"><g fill="none" fill-rule="evenodd"><path fill="#FAFAFA" d="M61 1l40 40v66c0 7.732-6.268 14-14 14H15c-7.732 0-14-6.268-14-14V15C1 7.268 7.268 1 15 1h46z"/><path fill="#000" fill-opacity=".06" fill-rule="nonzero" d="M61.414 0L102 40.586V107c0 8.284-6.716 15-15 15H15c-8.284 0-15-6.716-15-15V15C0 6.716 6.716 0 15 0h46.414zM61 1H15C7.268 1 1 7.268 1 15v92c0 7.732 6.268 14 14 14h72c7.732 0 14-6.268 14-14V41L61 1z"/><path fill="#000" fill-opacity=".04" d="M101 41H75.707C67.975 41 61 34.025 61 26.293V1l40 40z"/><path stroke="#FFC220" stroke-linecap="round" stroke-linejoin="round" stroke-width="2" d="M51.03 52.094l-14.416 1.342-.69 15.078 15.105-16.42zm.127 0l14.416 1.342.689 15.078-15.105-16.42zm-15.119 16.73h30.213L51.174 98.401 36.038 68.823zm-10.677-.228l11.173-14.873-.493 14.873h-10.68zm51.244-.05L65.62 53.77l.492 14.872 10.492-.097zm-40.567-.006h30.086L51.081 52.293 36.038 68.54zm15.088 30.244L35.941 68.69H25.2l25.927 30.094zm-.076-.066l15.185-30.093h10.589L51.05 98.718z"/></g></svg>
