<svg width="48" height="48" viewBox="0 0 48 48" fill="none" xmlns="http://www.w3.org/2000/svg">
                <path fillRule="evenodd" clipRule="evenodd" d="M24.0435 0.180176C10.8149 0.180176 0.0878906 11.0881 0.0878906 24.5447C0.0878906 35.3098 6.95189 44.4428 16.4702 47.6646C17.6674 47.8901 18.1069 47.136 18.1069 46.4925C18.1069 45.9115 18.0847 43.9921 18.0744 41.9562C11.4099 43.4301 10.0037 39.0815 10.0037 39.0815C8.91394 36.2652 7.34382 35.5164 7.34382 35.5164C5.17034 34.0042 7.50766 34.0352 7.50766 34.0352C9.91321 34.2067 11.1799 36.546 11.1799 36.546C13.3165 40.2709 16.784 39.194 18.151 38.5715C18.366 36.9971 18.9868 35.9215 19.6719 35.3134C14.351 34.6973 8.75764 32.6081 8.75764 23.2722C8.75764 20.6121 9.69344 18.4386 11.2259 16.7323C10.9771 16.1182 10.1572 13.6405 11.4579 10.2844C11.4579 10.2844 13.4696 9.62952 18.0474 12.7819C19.9583 12.242 22.0076 11.9713 24.0435 11.962C26.0793 11.9713 28.1302 12.242 30.0447 12.7819C34.6169 9.62952 36.6258 10.2844 36.6258 10.2844C37.9297 13.6405 37.1094 16.1182 36.8606 16.7323C38.3966 18.4386 39.3261 20.6121 39.3261 23.2722C39.3261 32.6303 33.722 34.6909 28.3877 35.2941C29.2469 36.0502 30.0125 37.5329 30.0125 39.8061C30.0125 43.0658 29.9848 45.6896 29.9848 46.4925C29.9848 47.1409 30.416 47.9006 31.6302 47.6613C41.1434 44.436 47.9986 35.3062 47.9986 24.5447C47.9986 11.0881 37.2732 0.180176 24.0435 0.180176Z" fill="white" />
                <path fillRule="evenodd" clipRule="evenodd" d="M9.16108 35.1625C9.10832 35.284 8.92108 35.3199 8.7505 35.2368C8.57675 35.1573 8.47916 34.9923 8.53549 34.8708C8.58706 34.7461 8.7747 34.7119 8.94806 34.7946C9.1222 34.8745 9.22138 35.0411 9.16108 35.1625Z" fill="white" />
                <path fillRule="evenodd" clipRule="evenodd" d="M10.1314 36.2632C10.0171 36.3709 9.79381 36.3209 9.64227 36.1506C9.48558 35.9808 9.45622 35.7536 9.57206 35.6443C9.68987 35.5366 9.90647 35.587 10.0636 35.7568C10.2203 35.9287 10.2508 36.1543 10.1314 36.2632Z" fill="white" />
                <path fillRule="evenodd" clipRule="evenodd" d="M11.0759 37.6665C10.9291 37.7702 10.6891 37.6729 10.5408 37.4563C10.394 37.2396 10.394 36.9798 10.544 36.8757C10.6927 36.7716 10.9291 36.8652 11.0795 37.0802C11.2259 37.3001 11.2259 37.5604 11.0759 37.6665Z" fill="white" />
                <path fillRule="evenodd" clipRule="evenodd" d="M12.3699 39.0222C12.2386 39.1694 11.959 39.1299 11.7543 38.929C11.5448 38.7325 11.4865 38.4537 11.6182 38.3064C11.7511 38.1587 12.0324 38.2003 12.2386 38.3996C12.4465 38.5957 12.51 38.8765 12.3699 39.0222Z" fill="white" />
                <path fillRule="evenodd" clipRule="evenodd" d="M14.1551 39.8093C14.0971 40.0002 13.8278 40.0869 13.5565 40.0058C13.2855 39.9223 13.1082 39.6988 13.1629 39.5059C13.2193 39.3139 13.4898 39.2235 13.7631 39.3102C14.0337 39.3934 14.2114 39.6153 14.1551 39.8093Z" fill="white" />
                <path fillRule="evenodd" clipRule="evenodd" d="M16.1155 39.9554C16.1223 40.1563 15.8922 40.323 15.6074 40.3262C15.3209 40.333 15.0893 40.1704 15.0861 39.9727C15.0861 39.7698 15.311 39.6048 15.5974 39.5999C15.8823 39.5943 16.1155 39.7557 16.1155 39.9554Z" fill="white" />
                <path fillRule="evenodd" clipRule="evenodd" d="M17.9399 39.6395C17.974 39.8356 17.7761 40.0369 17.4932 40.0902C17.2152 40.1422 16.9577 40.0212 16.9224 39.8267C16.8879 39.6258 17.0894 39.4244 17.3671 39.3724C17.6503 39.3223 17.9038 39.4402 17.9399 39.6395Z" fill="white" />
            </svg>