<?xml version="1.0" encoding="UTF-8" standalone="no"?>
<!-- Created with Inkscape (http://www.inkscape.org/) -->

<svg
   width="86mm"
   height="55mm"
   viewBox="0 0 86 55"
   version="1.1"
   id="svg57811"
   inkscape:version="1.1.2 (0a00cf5339, 2022-02-04)"
   sodipodi:docname="uno_back.svg"
   xmlns:inkscape="http://www.inkscape.org/namespaces/inkscape"
   xmlns:sodipodi="http://sodipodi.sourceforge.net/DTD/sodipodi-0.dtd"
   xmlns="http://www.w3.org/2000/svg"
   xmlns:svg="http://www.w3.org/2000/svg">
  <sodipodi:namedview
     id="namedview57813"
     pagecolor="#ffffff"
     bordercolor="#999999"
     borderopacity="1"
     inkscape:pageshadow="0"
     inkscape:pageopacity="0"
     inkscape:pagecheckerboard="0"
     inkscape:document-units="mm"
     showgrid="false"
     inkscape:zoom="1.9704153"
     inkscape:cx="140.32574"
     inkscape:cy="116.47291"
     inkscape:window-width="1846"
     inkscape:window-height="1016"
     inkscape:window-x="0"
     inkscape:window-y="0"
     inkscape:window-maximized="1"
     inkscape:current-layer="layer1" />
  <defs
     id="defs57808" />
  <g
     inkscape:label="Layer 1"
     inkscape:groupmode="layer"
     id="layer1">
    <path
       style="fill:none;stroke:#000000;stroke-width:0.1;stroke-miterlimit:4;stroke-dasharray:none;stroke-opacity:1"
       d="M 1.6774401,54.110775 C 0.01819401,53.189199 0.06248741,53.904589 0.05030521,27.830795 0.04327521,12.781313 0.15810981,3.1981757 0.35159171,2.6882127 0.52354841,2.2349847 1.1367736,1.5754537 1.7143146,1.2225887 2.7490356,0.59039773 3.3518207,0.58099973 42.940555,0.57981573 86.20441,0.57851573 84.43592,0.51227573 85.319855,2.1673807 85.538193,2.5762027 85.65,11.270769 85.65,27.84052 v 25.054961 c 0.01836,0.657178 -0.53051,1.223975 -0.53051,1.223975 0,0 -0.415716,0.439854 -1.442536,0.439715 L 43.06035,54.547761 C 9.9623013,54.538507 2.301897,54.457613 1.6774401,54.110775 Z"
       id="path4600"
       sodipodi:nodetypes="sssssssccccs" />
    <path
       style="fill:none;stroke:#000000;stroke-width:0.0939696;stroke-miterlimit:4;stroke-dasharray:none;stroke-opacity:1"
       d="m 11.000305,19.452775 c 0.643694,2.086044 2.38286,5.90132 3.357398,7.365274 1.379096,2.071673 3.823342,5.260027 4.958607,6.468143 1.820377,1.937204 7.97593,7.25171 9.510028,8.21066 0.618763,0.386778 0.901805,0.568721 4.038588,2.596069 1.182456,0.764237 3.479131,2.038041 5.10373,2.830671 6.774505,3.305235 11.05165,4.644055 17.747741,5.555356 6.625232,0.901652 13.423473,-0.608963 16.601619,-3.688986 1.322704,-1.281867 1.658001,-1.790605 2.466606,-3.742493 0.840459,-2.028776 0.979554,-4.769554 0.372742,-7.344621 -0.731237,-3.103084 -1.774115,-5.506945 -3.5562,-8.19712 C 69.024949,25.616759 68.230135,24.620204 64.918328,21.126666 60.107015,16.051325 51.421071,10.134978 44.45345,7.1872027 c -1.79329,-0.758683 -7.439104,-2.620863 -9.190543,-3.031357 -0.72956,-0.170984 -1.624926,-0.390068 -1.989705,-0.48685 -1.616808,-0.428955 -4.364862,-0.656451 -8.053568,-0.666726 -3.907967,-0.01084 -4.008328,-7.27e-4 -5.590126,0.547175 -2.714531,0.940809 -5.073329,2.268039 -6.267773,3.526699 -1.631624,1.719343 -1.991996,2.2435517 -2.512615,3.6549243 -0.65153,1.766299 -0.677361,1.955389 -0.599648,4.38971 0.05656,1.773053 0.178844,2.478353 0.750833,4.331997 z m 60.586943,33.569218 c -0.0994,0 1.212721,-1.348161 2.295442,-2.441587 2.099605,-2.120376 2.508671,-2.787815 3.426523,-5.590781 0.404606,-1.235599 0.495571,-1.87292 0.494683,-3.465595 -0.0014,-2.426023 -0.202043,-3.697258 -0.957135,-6.063307 C 74.846108,29.191799 70.399965,22.74649 64.16804,17.081159 61.016207,14.21588 60.303983,13.633093 57.623692,11.726168 54.855883,9.7569756 53.940823,9.1760507 51.781633,8.0173447 49.023674,6.2307797 46.065069,4.5232837 43.115755,2.9835817 l -1.393963,-0.662762 c 5.999137,0.02941 22.289435,-0.07777 31.440552,0.168346 l 6.442856,0.154669 c 0.670092,0.01609 1.100715,0.347624 1.100715,0.347624 0.893535,0.592933 1.178282,1.140257 1.540703,1.921586 0.898077,1.936149 0.921232,2.225869 0.792867,9.9189073 -0.06625,3.970994 -0.103223,10.035781 -0.08215,13.477311 0.103842,16.960359 0.03516,20.662387 -0.404798,21.829512 -0.358345,0.950545 -0.928322,1.60952 -1.860005,2.150445 -0.823542,0.478139 -1.137555,0.623817 -3.835016,0.679204 -2.294133,0.04711 -3.757289,0.06567 -3.757289,0.06567 z"
       id="path6217"
       sodipodi:nodetypes="sssssssssscccccssscssccsssssccccsccsccsscc" />
    <path
       style="fill:none;stroke:#000000;stroke-width:0.0939696;stroke-miterlimit:4;stroke-dasharray:none;stroke-opacity:1"
       d="m 13.89956,2.3287767 c 0.0994,0 -1.321823,1.37064 -2.404544,2.464066 -2.0996045,2.120376 -2.5086702,2.787815 -3.4265219,5.5907813 -0.4046057,1.235599 -0.4955707,1.87292 -0.4946827,3.465595 0.0014,2.426023 0.202043,3.697258 0.9571344,6.063307 2.0006522,6.268924 6.4467952,12.714233 12.6787202,18.379564 3.151833,2.865279 3.864057,3.448066 6.544348,5.354991 2.767809,1.969192 3.682869,2.550117 5.842059,3.708823 2.757959,1.786565 5.716564,3.494061 8.665878,5.033763 l 1.12548,0.512899 h -2.2e-5 c -1.423272,0.184963 -23.235688,0.17201 -31.172047,-0.01848 L 5.7725086,52.729417 C 5.1024169,52.713327 4.6717942,52.381793 4.6717942,52.381793 3.7782595,51.78886 3.4935128,51.241536 3.1310921,50.460207 2.2330154,48.524058 2.2098604,48.234338 2.3382254,40.5413 2.4044754,36.570306 2.4414484,30.505519 2.4203754,27.063989 2.3165334,10.10363 2.3852154,6.4016017 2.8251731,5.2344767 c 0.3583447,-0.950545 0.9283214,-1.60952 1.8600041,-2.150445 0.8235414,-0.478139 1.1375541,-0.623817 3.8350136,-0.679204 2.2941322,-0.04711 3.7572882,-0.06567 3.7572882,-0.06567 z"
       id="path6217-3"
       sodipodi:nodetypes="ccssssscccsssccsccsscc" />
    <text
       xml:space="preserve"
       style="font-style:italic;font-variant:normal;font-weight:normal;font-stretch:normal;font-size:16.9333px;line-height:1.25;font-family:sans-serif;-inkscape-font-specification:'sans-serif, Italic';font-variant-ligatures:normal;font-variant-caps:normal;font-variant-numeric:normal;font-variant-east-asian:normal;fill:#000000;fill-opacity:1;stroke:none;stroke-width:0.264583"
       x="19.175144"
       y="-26.76569"
       id="text63658"
       transform="rotate(74.618337)"><tspan
         sodipodi:role="line"
         id="tspan63656"
         style="font-style:italic;font-variant:normal;font-weight:normal;font-stretch:normal;font-size:16.9333px;font-family:sans-serif;-inkscape-font-specification:'sans-serif, Italic';font-variant-ligatures:normal;font-variant-caps:normal;font-variant-numeric:normal;font-variant-east-asian:normal;stroke-width:0.264583"
         x="19.175144"
         y="-26.76569">UNO</tspan></text>
  </g>
</svg>
